<mxfile host="app.diagrams.net" agent="Mozilla/5.0 (Windows NT 10.0; Win64; x64) AppleWebKit/537.36 (KHTML, like Gecko) Chrome/127.0.0.0 Safari/537.36" version="24.7.6">
  <diagram name="Page-1" id="d2Kw6dL8IXU789DSkAsm">
    <mxGraphModel dx="808" dy="408" grid="1" gridSize="10" guides="1" tooltips="1" connect="1" arrows="1" fold="1" page="1" pageScale="1" pageWidth="827" pageHeight="1169" math="0" shadow="0">
      <root>
        <mxCell id="0" />
        <mxCell id="1" parent="0" />
        <mxCell id="z7DT7eUzLvm8dvg10mEs-1" value="&lt;p&gt;&lt;strong&gt;Préparation de l&#39;Environnement&lt;/strong&gt;&lt;/p&gt;" style="rounded=0;whiteSpace=wrap;html=1;strokeColor=#7EA6E0;" vertex="1" parent="1">
          <mxGeometry x="30" y="150" width="200" height="60" as="geometry" />
        </mxCell>
        <mxCell id="z7DT7eUzLvm8dvg10mEs-2" value="&lt;p&gt;&lt;strong&gt;Installation des Logiciels DNS&lt;/strong&gt;&lt;/p&gt;" style="rounded=0;whiteSpace=wrap;html=1;strokeColor=#7EA6E0;" vertex="1" parent="1">
          <mxGeometry x="310" y="150" width="180" height="60" as="geometry" />
        </mxCell>
        <mxCell id="z7DT7eUzLvm8dvg10mEs-3" value="&lt;p&gt;&lt;strong&gt;Configuration Initiale&lt;/strong&gt;&lt;/p&gt;" style="rounded=0;whiteSpace=wrap;html=1;strokeColor=#7EA6E0;" vertex="1" parent="1">
          <mxGeometry x="570" y="150" width="180" height="60" as="geometry" />
        </mxCell>
        <mxCell id="z7DT7eUzLvm8dvg10mEs-4" value="&lt;p&gt;&lt;br&gt;&lt;/p&gt;" style="text;whiteSpace=wrap;html=1;" vertex="1" parent="1">
          <mxGeometry x="490" y="20" width="220" height="90" as="geometry" />
        </mxCell>
        <mxCell id="z7DT7eUzLvm8dvg10mEs-5" value="&lt;p&gt;&lt;/p&gt;&lt;ul style=&quot;forced-color-adjust: none; color: rgb(0, 0, 0); font-family: Helvetica; font-size: 12px; font-style: normal; font-variant-ligatures: normal; font-variant-caps: normal; font-weight: 400; letter-spacing: normal; orphans: 2; text-align: left; text-indent: 0px; text-transform: none; widows: 2; word-spacing: 0px; -webkit-text-stroke-width: 0px; white-space: normal; background-color: rgb(251, 251, 251); text-decoration-thickness: initial; text-decoration-style: initial; text-decoration-color: initial;&quot;&gt;&lt;/ul&gt;&lt;p&gt;&lt;/p&gt;&lt;p style=&quot;forced-color-adjust: none; color: rgb(0, 0, 0); font-family: Helvetica; font-size: 12px; font-style: normal; font-variant-ligatures: normal; font-variant-caps: normal; font-weight: 400; letter-spacing: normal; orphans: 2; text-indent: 0px; text-transform: none; widows: 2; word-spacing: 0px; -webkit-text-stroke-width: 0px; white-space: normal; background-color: rgb(251, 251, 251); text-decoration-thickness: initial; text-decoration-style: initial; text-decoration-color: initial;&quot;&gt;&lt;strong style=&quot;forced-color-adjust: none;&quot;&gt;Personnalisation des Paramètres&lt;/strong&gt;&lt;/p&gt;" style="rounded=0;whiteSpace=wrap;html=1;strokeColor=#7EA6E0;" vertex="1" parent="1">
          <mxGeometry x="570" y="280" width="180" height="60" as="geometry" />
        </mxCell>
        <mxCell id="z7DT7eUzLvm8dvg10mEs-6" value="&lt;p&gt;&lt;/p&gt;&lt;ul style=&quot;forced-color-adjust: none; color: rgb(0, 0, 0); font-family: Helvetica; font-size: 12px; font-style: normal; font-variant-ligatures: normal; font-variant-caps: normal; font-weight: 400; letter-spacing: normal; orphans: 2; text-align: left; text-indent: 0px; text-transform: none; widows: 2; word-spacing: 0px; -webkit-text-stroke-width: 0px; white-space: normal; background-color: rgb(251, 251, 251); text-decoration-thickness: initial; text-decoration-style: initial; text-decoration-color: initial;&quot;&gt;&lt;/ul&gt;&lt;p&gt;&lt;/p&gt;&lt;p&gt;&lt;strong&gt;Tests et Validation&lt;/strong&gt;&lt;/p&gt;" style="rounded=0;whiteSpace=wrap;html=1;strokeColor=#7EA6E0;" vertex="1" parent="1">
          <mxGeometry x="310" y="280" width="180" height="60" as="geometry" />
        </mxCell>
        <mxCell id="z7DT7eUzLvm8dvg10mEs-8" value="&lt;p&gt;&lt;/p&gt;&lt;ul style=&quot;forced-color-adjust: none; color: rgb(0, 0, 0); font-family: Helvetica; font-size: 12px; font-style: normal; font-variant-ligatures: normal; font-variant-caps: normal; font-weight: 400; letter-spacing: normal; orphans: 2; text-align: left; text-indent: 0px; text-transform: none; widows: 2; word-spacing: 0px; -webkit-text-stroke-width: 0px; white-space: normal; background-color: rgb(251, 251, 251); text-decoration-thickness: initial; text-decoration-style: initial; text-decoration-color: initial;&quot;&gt;&lt;/ul&gt;&lt;p&gt;&lt;/p&gt;&lt;p&gt;&lt;/p&gt;&lt;ul style=&quot;forced-color-adjust: none; color: rgb(0, 0, 0); font-family: Helvetica; font-size: 12px; font-style: normal; font-variant-ligatures: normal; font-variant-caps: normal; font-weight: 400; letter-spacing: normal; orphans: 2; text-align: left; text-indent: 0px; text-transform: none; widows: 2; word-spacing: 0px; -webkit-text-stroke-width: 0px; white-space: normal; background-color: rgb(251, 251, 251); text-decoration-thickness: initial; text-decoration-style: initial; text-decoration-color: initial;&quot;&gt;&lt;/ul&gt;&lt;p&gt;&lt;/p&gt;&lt;p style=&quot;forced-color-adjust: none; color: rgb(0, 0, 0); font-family: Helvetica; font-size: 12px; font-style: normal; font-variant-ligatures: normal; font-variant-caps: normal; font-weight: 400; letter-spacing: normal; orphans: 2; text-indent: 0px; text-transform: none; widows: 2; word-spacing: 0px; -webkit-text-stroke-width: 0px; white-space: normal; background-color: rgb(251, 251, 251); text-decoration-thickness: initial; text-decoration-style: initial; text-decoration-color: initial;&quot;&gt;&lt;strong style=&quot;forced-color-adjust: none;&quot;&gt;Mise en Production&lt;/strong&gt;&lt;/p&gt;&lt;p style=&quot;forced-color-adjust: none; color: rgb(0, 0, 0); font-family: Helvetica; font-size: 12px; font-style: normal; font-variant-ligatures: normal; font-variant-caps: normal; font-weight: 400; letter-spacing: normal; orphans: 2; text-indent: 0px; text-transform: none; widows: 2; word-spacing: 0px; -webkit-text-stroke-width: 0px; white-space: normal; background-color: rgb(251, 251, 251); text-decoration-thickness: initial; text-decoration-style: initial; text-decoration-color: initial;&quot;&gt;&lt;strong style=&quot;forced-color-adjust: none;&quot;&gt;(Installation sur le virtual data center orange)&lt;/strong&gt;&lt;/p&gt;" style="rounded=0;whiteSpace=wrap;html=1;strokeColor=#7EA6E0;" vertex="1" parent="1">
          <mxGeometry x="30" y="280" width="200" height="60" as="geometry" />
        </mxCell>
        <mxCell id="z7DT7eUzLvm8dvg10mEs-9" value="" style="endArrow=classic;html=1;rounded=0;entryX=-0.007;entryY=0.379;entryDx=0;entryDy=0;entryPerimeter=0;" edge="1" parent="1">
          <mxGeometry width="50" height="50" relative="1" as="geometry">
            <mxPoint x="231.26" y="180.63" as="sourcePoint" />
            <mxPoint x="310" y="179.37" as="targetPoint" />
          </mxGeometry>
        </mxCell>
        <mxCell id="z7DT7eUzLvm8dvg10mEs-10" value="" style="endArrow=classic;html=1;rounded=0;entryX=-0.007;entryY=0.379;entryDx=0;entryDy=0;entryPerimeter=0;" edge="1" parent="1">
          <mxGeometry width="50" height="50" relative="1" as="geometry">
            <mxPoint x="490" y="180.63" as="sourcePoint" />
            <mxPoint x="568.74" y="179.37" as="targetPoint" />
          </mxGeometry>
        </mxCell>
        <mxCell id="z7DT7eUzLvm8dvg10mEs-11" value="" style="endArrow=classic;html=1;rounded=0;entryX=0.5;entryY=0;entryDx=0;entryDy=0;exitX=0.5;exitY=1;exitDx=0;exitDy=0;" edge="1" parent="1" source="z7DT7eUzLvm8dvg10mEs-3" target="z7DT7eUzLvm8dvg10mEs-5">
          <mxGeometry width="50" height="50" relative="1" as="geometry">
            <mxPoint x="620.63" y="221.26" as="sourcePoint" />
            <mxPoint x="699.37" y="220" as="targetPoint" />
          </mxGeometry>
        </mxCell>
        <mxCell id="z7DT7eUzLvm8dvg10mEs-12" value="" style="endArrow=classic;html=1;rounded=0;entryX=1;entryY=0.5;entryDx=0;entryDy=0;exitX=0;exitY=0.5;exitDx=0;exitDy=0;" edge="1" parent="1" source="z7DT7eUzLvm8dvg10mEs-5" target="z7DT7eUzLvm8dvg10mEs-6">
          <mxGeometry width="50" height="50" relative="1" as="geometry">
            <mxPoint x="500" y="250" as="sourcePoint" />
            <mxPoint x="500" y="320" as="targetPoint" />
          </mxGeometry>
        </mxCell>
        <mxCell id="z7DT7eUzLvm8dvg10mEs-13" value="" style="endArrow=classic;html=1;rounded=0;entryX=1;entryY=0.5;entryDx=0;entryDy=0;exitX=0;exitY=0.5;exitDx=0;exitDy=0;" edge="1" parent="1">
          <mxGeometry width="50" height="50" relative="1" as="geometry">
            <mxPoint x="310" y="309.6" as="sourcePoint" />
            <mxPoint x="230" y="309.6" as="targetPoint" />
          </mxGeometry>
        </mxCell>
      </root>
    </mxGraphModel>
  </diagram>
</mxfile>
